<svg width="24" height="24" fill="none" xmlns="http://www.w3.org/2000/svg"><path d="M8.1 10.778V4.667c0-.973.411-1.905 1.142-2.593A4.03 4.03 0 0112 1a4.03 4.03 0 012.758 1.074A3.559 3.559 0 0115.9 4.667v6.11M19.696 23H4.304c-.18 0-.358-.034-.523-.102a1.302 1.302 0 01-.435-.29 1.21 1.21 0 01-.274-.43 1.154 1.154 0 01-.068-.498L4.11 8.236c.026-.307.175-.594.416-.802.24-.209.557-.324.884-.323h13.182c.327 0 .643.114.884.323.241.208.39.495.416.802l1.105 13.444c.014.169-.009.338-.068.498a1.21 1.21 0 01-.274.43c-.122.124-.27.223-.435.29a1.371 1.371 0 01-.523.102z" stroke="#40393B" stroke-linecap="round" stroke-linejoin="round"/></svg>